<?xml version="1.0" encoding="UTF-8"?>
<svg id="Layer_2" data-name="Layer 2" xmlns="http://www.w3.org/2000/svg" viewBox="0 0 266.51 266.51">
  <defs>
    <style>
      .cls-1 {
        fill: #f90;
        stroke-width: 0px;
      }
    </style>
  </defs>
  <g id="Layer_1-2" data-name="Layer 1">
    <path class="cls-1" d="m133.26,0h0C59.66,0,0,59.66,0,133.26h0c0,73.6,59.66,133.26,133.26,133.26h0c73.6,0,133.26-59.66,133.26-133.26h0C266.51,59.66,206.85,0,133.26,0Zm-24.07,18.34c11.12,35.1,89.79,22.35,86.09,54.6-.04.33.19.64.55.73,29.72,7.18,41.23,8.14,42.85,24.51.07.71-.98,1.06-1.39.45-7.85-11.65-40.84-14.03-46.27-14.24-.44-.02-.77-.34-.79-.73-1.97-30.85-46.31-27.02-65.55-36.31-1.91-.92-4.01.91-3.11,2.68l4.23,8.26c.37.73-.55,1.44-1.3,1-13.26-7.84-15.57-37.64-15.57-40.94,0-.3.16-.35.26-.01Zm-1.17,37.36c.82-.05.99,1.2.18,1.37-28.98,6.33-46.96,21.88-55.33,30.92-.57.61.22,1.54.88,1.04,10.72-7.9,25.61-12.26,42.41-14.73.81-.12,1.11,1.08.33,1.35-20.25,7.04-55.48,26.13-65.96,55.88-.26.75-1.35.52-1.32-.27,1.6-41.62,24.81-72.51,78.79-75.56ZM30.68,183.14c-.26.86-1.48.6-1.48-.3.07-42.4,33.3-80.58,78.99-83.7.95-.07,1.22,1.25.3,1.5-21.89,5.94-37.76,17.95-46.57,26.37-.74.71.18,1.89,1.03,1.33,7.74-5.13,20.24-11.06,37.2-11.64.91-.03,1.1,1.29.21,1.53-37.29,9.95-61.86,39.17-69.69,64.92Zm50.54,64.76c-12.54-86.47,34.48-143.84,108.15-141.83,1.11.03,1.22,1.65.11,1.81-48.16,7-99.21,52.51-106.87,139.98-.07.83-1.28.86-1.4.04Zm157.45-102.24c0,3.12-2.63,5.54-5.78,5.43-21.61-.75-42.13,7.44-42.88,32.57,0,8.54-1.65,16.75-4.94,24.62-11.06,28.72-41.62,41.6-70.96,40.12-2.91-.15-5.2-2.56-5.2-5.45v-21.29c0-3.12,2.63-5.54,5.78-5.43,21.61.75,42.34-7.34,42.88-32.57.08-8.54,1.77-16.75,5.07-24.63,11.03-28.66,41.56-41.6,70.83-40.12,2.91.15,5.2,2.56,5.2,5.45v21.29Z"/>
  </g>
</svg>