<?xml version="1.0" encoding="UTF-8"?>
<svg id="Layer_2" data-name="Layer 2" xmlns="http://www.w3.org/2000/svg" viewBox="0 0 350.44 56.39">
  <defs>
    <style>
      .cls-1 {
        fill: #fff;
        stroke-width: 0px;
      }
    </style>
  </defs>
  <g id="Layer_1-2" data-name="Layer 1">
    <path class="cls-1" d="m56.39,2.43v9.25c0,1.35-1.14,2.41-2.51,2.36-9.39-.32-18.31,3.23-18.64,14.16,0,3.71-.72,7.28-2.15,10.7-4.81,12.48-18.09,18.08-30.84,17.44-1.27-.06-2.26-1.11-2.26-2.37v-9.25c0-1.35,1.14-2.41,2.51-2.36,9.39.33,18.4-3.19,18.64-14.16.04-3.71.77-7.28,2.2-10.7C28.14,5.04,41.41-.58,54.13.06c1.27.06,2.26,1.11,2.26,2.37Zm19.89-2.43h-9.33c-1.32,0-2.39,1.07-2.39,2.39v51.61c0,1.32,1.07,2.39,2.39,2.39h9.33c1.32,0,2.39-1.07,2.39-2.39V2.39c0-1.32-1.07-2.39-2.39-2.39Zm39.88.02c-29.95,3.9-25.98,30.78-25.88,53.96,0,1.32,1.08,2.4,2.42,2.4h9.45c1.34,0,2.42-1.07,2.42-2.4v-25.92c-.18-6.93,5.4-13.11,12.19-14.04,1.2-.17,2.1-1.17,2.1-2.37V2.4c0-1.44-1.27-2.57-2.7-2.38Zm58.39,17.33c7.79,18.25-6.21,39.25-26.01,39.03-19.8.22-33.79-20.78-26.01-39.03,9.63-23.13,42.39-23.13,52.01,0Zm-14.43,2.7c-3.04-4.32-8.36-6.64-13.59-5.89-10.42,1.48-15.49,13.67-9.55,22.11,3.04,4.32,8.35,6.64,13.58,5.89,10.42-1.48,15.49-13.67,9.56-22.11Zm74.48,21.82l-9.33-5.61c-1.58-.92-2.41,1.04-3.4,1.94-9.11,8.8-22.38,2.77-23.85-8.18-.66-4.87,1.39-9.76,5.19-12.85,1.9-1.54,4.07-2.51,6.48-2.88,5.1-.78,10.27,1.37,13.47,5.44.01.02.03.04.04.05.49.64,1.37.82,2.06.41,0,0,9.33-5.61,9.33-5.61,2.27-1.55-1.29-4.53-2.62-6.06-.22-.23-.43-.45-.65-.68C226.17,2.83,219.12-.02,211.95,0c-19.73-.22-33.67,20.77-25.91,39.01,7.34,18.23,31.33,23.23,45.28,9.61.22-.23.44-.47.66-.7,1.32-1.54,4.91-4.49,2.63-6.06Zm30.48-27.62c4.54-.61,9.14,1,12.27,4.37.36.38.69.77.99,1.16.49.64,1.37.82,2.06.41,0,0,9.33-5.61,9.33-5.61,2.27-1.55-1.29-4.53-2.62-6.06-.22-.23-.43-.45-.65-.68C281.3,2.83,274.25-.02,267.08,0c-19.73-.22-33.67,20.77-25.91,39.01,7.43,18.44,31.87,23.34,45.75,9.14,1.11-1.45,5.22-4.64,2.82-6.29l-9.33-5.61c-1.59-.92-2.41,1.04-3.4,1.94-10.93,10.56-27.85-.24-23.19-15.26,2.67-5.12,6.52-8.04,11.28-8.68Zm83.17,3.1c7.79,18.25-6.21,39.25-26.01,39.03-19.8.22-33.79-20.78-26.01-39.03,9.63-23.13,42.39-23.13,52.01,0Zm-14.43,2.7c-3.04-4.32-8.35-6.64-13.58-5.9-10.42,1.48-15.5,13.67-9.56,22.11,3.04,4.32,8.35,6.64,13.58,5.9,10.42-1.48,15.5-13.66,9.56-22.11Z"/>
  </g>
</svg>